<svg width="175" height="31" viewBox="0 0 175 31" xmlns="http://www.w3.org/2000/svg" xmlns:xlink="http://www.w3.org/1999/xlink">
<title>Logo</title>
<g fill="none" fill-rule="evenodd">
<g transform="translate(0 .928)" fill="#09A5DB">
<path d="M27.338 0H1.608C.72 0 0 .72 0 1.608v2.858c0 .888.72 1.609 1.608 1.609h25.73c.888 0 1.608-.72 1.608-1.609V1.608C28.946.72 28.226 0 27.338 0z"/>
<path d="M27.338 15.951H1.608C.72 15.951 0 16.67 0 17.559v2.86c0 .886.72 1.606 1.608 1.606h25.73c.888 0 1.608-.72 1.608-1.607v-2.86c0-.888-.72-1.608-1.608-1.608z"/>
<path d="M16.081 23.925H1.608C.72 23.925 0 24.645 0 25.534v2.858c0 .888.72 1.608 1.608 1.608h14.473c.888 0 1.608-.72 1.608-1.608v-2.858a1.607 1.607 0 0 0-1.608-1.609z"/>
<path d="M28.946 7.975H1.608C.72 7.975 0 8.695 0 9.583v2.86c0 .886.72 1.607 1.608 1.607h27.338c.889 0 1.607-.72 1.607-1.608v-2.86c0-.888-.718-1.608-1.607-1.608z"/>
</g>
<g transform="translate(44.265 6.184)" fill="#000">
<path d="M14.446 2.213A7.406 7.406 0 0 0 12.025.57 7.477 7.477 0 0 0 9.129 0c-1.056 0-2 .196-2.8.592-.622.304-1.15.69-1.56 1.139v-.438a.87.87 0 0 0-.233-.598.78.78 0 0 0-.6-.265H.833a.76.76 0 0 0-.599.265.848.848 0 0 0-.235.598v20.531c0 .231.08.432.237.593.16.156.354.234.597.234h3.163a.82.82 0 0 0 .574-.234.77.77 0 0 0 .258-.593v-7.007c.423.465.986.82 1.657 1.065a7.408 7.408 0 0 0 2.577.464c1.016 0 2-.188 2.928-.568a7.372 7.372 0 0 0 2.455-1.658 7.949 7.949 0 0 0 1.665-2.582c.418-1.006.62-2.142.62-3.38 0-1.236-.202-2.374-.62-3.38-.404-.996-.967-1.864-1.665-2.565zm-2.839 7.418a3.675 3.675 0 0 1-.744 1.166 3.37 3.37 0 0 1-1.107.784 3.424 3.424 0 0 1-1.404.283 3.502 3.502 0 0 1-2.533-1.067 3.635 3.635 0 0 1-.754-1.166 3.875 3.875 0 0 1-.27-1.442c0-.514.093-.997.27-1.446.177-.436.433-.825.754-1.149a3.812 3.812 0 0 1 1.142-.786 3.356 3.356 0 0 1 1.39-.296c.51 0 .978.1 1.401.296a3.79 3.79 0 0 1 1.117.782 3.7 3.7 0 0 1 .738 1.153c.177.45.265.932.265 1.446 0 .514-.088.996-.265 1.442z"/>
<path d="M17.807.43h-3.136a.82.82 0 0 0-.58.252.865.865 0 0 0-.253.61v.379c-.352-.423-.831-.784-1.42-1.079C12.022.196 11.095 0 10.063 0c-.996 0-1.973.19-2.897.57-.932.38-1.77.93-2.487 1.637A8.117 8.117 0 0 0 3.047 4.778C2.618 5.777 2.399 6.918 2.399 8.158c0 1.238.218 2.374.649 3.38.434.995 1.008 1.87 1.717 2.582a7.595 7.595 0 0 0 2.47 1.658 7.61 7.61 0 0 0 2.899.568c1.031 0 1.965-.2 2.765-.59.59-.297 1.075-.658 1.435-1.08v.407c0 .235.088.44.26.592a.817.817 0 0 0 .573.237h3.136a.786.786 0 0 0 .591-.24.797.797 0 0 0 .24-.589V1.293a.848.848 0 0 0-.234-.598.765.765 0 0 0-.597-.265zm-4.233 9.182a3.525 3.525 0 0 1-.737 1.17 3.777 3.777 0 0 1-1.115.786c-.42.195-.897.296-1.405.296-.489 0-.959-.1-1.39-.296a3.697 3.697 0 0 1-1.127-.786 3.42 3.42 0 0 1-.739-1.17 3.935 3.935 0 0 1-.264-1.423c0-.514.09-.997.264-1.446.177-.44.427-.832.739-1.153a3.73 3.73 0 0 1 1.128-.782c.43-.196.9-.296 1.389-.296.508 0 .986.1 1.405.296.42.197.798.458 1.115.782.31.328.56.717.737 1.153.177.45.264.932.264 1.446 0 .49-.088.97-.264 1.423z" transform="translate(17.807)"/>
</g>
</g>
</svg>
